<svg xmlns="http://www.w3.org/2000/svg" xml:space="preserve" width="1365.333" height="1365.333" viewBox="0 0 1365.333 1365.333">
  <defs>
    <mask id="spanner">
      <path d="m523.18 899.13 300.24-394.065s34.365-35.915 46.091-69.549c11.727-33.634.988-72.204-2.46-104.403-5.358-50.016 59.283-109.877 59.283-109.877s69.906-48.692 76.993-40.385-46.397 95.284-39.707 122.272c10.605 42.782 80.61 74.691 115.162 58.516s54.191-119.781 68.45-123.27c14.259-3.49 31.217 85.629 29.104 137.042s-52.322 83.478-83.625 93.094-71.227 10.846-102.507 35.2-361.42 471.203-361.42 471.203z" style="display:inline;fill:#fff;fill-opacity:1;stroke:none;stroke-width:5.58147;stroke-linecap:round;stroke-linejoin:round;stroke-dasharray:none;stroke-opacity:1"/>
    </mask>
  </defs>
  <path d="m523.18 899.13 300.24-394.065s34.365-35.915 46.091-69.549c11.727-33.634.988-72.204-2.46-104.403-5.358-50.016 59.283-109.877 59.283-109.877s69.906-48.692 76.993-40.385-46.397 95.284-39.707 122.272c10.605 42.782 80.61 74.691 115.162 58.516s54.191-119.781 68.45-123.27c14.259-3.49 31.217 85.629 29.104 137.042s-52.322 83.478-83.625 93.094-71.227 10.846-102.507 35.2-361.42 471.203-361.42 471.203z" style="display:inline;mix-blend-mode:normal;fill:none;fill-opacity:1;stroke:#263238;stroke-width:29.3947;stroke-linecap:round;stroke-linejoin:round;stroke-dasharray:none;stroke-opacity:1"/>
  <g mask="url(#spanner)">
    <path d="m916.084 52.25 420.493 180.531-532.698 916.066-476.546-308.58Z" style="fill:#eceff1;fill-opacity:1;stroke:none;stroke-width:5.58147;stroke-linecap:round;stroke-linejoin:round;stroke-dasharray:none;stroke-opacity:1" />
    <path d="M856.06 362.55s35.273 37.417 44.671 47.481 30.133 23.878 30.133 23.878-19.577-12.395-133.162 132.35c-113.586 144.744-274.29 356.33-274.29 356.33l-74.43-62.208z" style="fill:#fff;fill-opacity:1;stroke:none;stroke-width:5.58147;stroke-linecap:round;stroke-linejoin:round;stroke-dasharray:none;stroke-opacity:1"/>
    <path d="M1003.804 214.75s-61.324 47.811-85.42 85.1c-24.096 37.29-8.4 134.552-8.4 134.552l-119.375-94.095 193.083-235.652 92.963 84.914z" style="fill:#fff;fill-opacity:1;stroke:none;stroke-width:5.58147;stroke-linecap:round;stroke-linejoin:round;stroke-dasharray:none;stroke-opacity:1"/>
    <path d="M1128.958 213.086s18.838 96.946 18.548 125.56c-.29 28.612-8.26 73.801-33.74 89.024s-63.802 38.756-115.38 20.88-172.024-84.115-172.024-84.115S981.864 470.314 1006.22 474.08s112.252 10.05 112.252 10.05l90.662-46.814 21.129-221.796z" style="fill:#cfd8dc;fill-opacity:1;stroke:none;stroke-width:5.58147;stroke-linecap:round;stroke-linejoin:round;stroke-dasharray:none;stroke-opacity:1"/>
    <path d="M1041.552 459.425s-36.954 8.644-65.379 28.54-170.117 214.54-170.117 214.54L582.36 996.25l52.042 26.094 450.026-523.432z" style="fill:#cfd8dc;fill-opacity:1;stroke:none;stroke-width:5.58147;stroke-linecap:round;stroke-linejoin:round;stroke-dasharray:none;stroke-opacity:1"/>
  </g>
</svg>